<mxfile host="app.diagrams.net" modified="2024-01-21T17:55:59.507Z" agent="Mozilla/5.0 (Macintosh; Intel Mac OS X 10.15; rv:121.0) Gecko/20100101 Firefox/121.0" etag="ioOteFN8rW7jaaJ0t4j2" version="22.1.21" type="device">
  <diagram name="Page-1" id="pd6qJZbIT5XKq44ENkNk">
    <mxGraphModel dx="2284" dy="1897" grid="1" gridSize="10" guides="1" tooltips="1" connect="1" arrows="1" fold="1" page="1" pageScale="1" pageWidth="850" pageHeight="1100" math="0" shadow="0">
      <root>
        <mxCell id="0" />
        <mxCell id="1" parent="0" />
        <mxCell id="bKzkpVximSu1KDsUYIer-80" value="AlterLand" style="rounded=1;whiteSpace=wrap;html=1;fontFamily=Helvetica;fontSize=30;fontColor=default;dashed=1;dashPattern=12 12;horizontal=1;verticalAlign=top;align=center;" vertex="1" parent="1">
          <mxGeometry x="-110" width="1000" height="830" as="geometry" />
        </mxCell>
        <mxCell id="bKzkpVximSu1KDsUYIer-1" value="User" style="shape=umlActor;verticalLabelPosition=bottom;verticalAlign=top;html=1;outlineConnect=0;" vertex="1" parent="1">
          <mxGeometry x="-200" y="140" width="60" height="120" as="geometry" />
        </mxCell>
        <mxCell id="bKzkpVximSu1KDsUYIer-7" value="&lt;font style=&quot;font-size: 25px;&quot;&gt;MINA SQUARE&lt;br style=&quot;font-size: 25px;&quot;&gt;&lt;/font&gt;" style="rounded=1;whiteSpace=wrap;html=1;fontSize=25;" vertex="1" parent="1">
          <mxGeometry x="240" y="90" width="220" height="230" as="geometry" />
        </mxCell>
        <mxCell id="bKzkpVximSu1KDsUYIer-8" value="" style="edgeStyle=orthogonalEdgeStyle;rounded=0;orthogonalLoop=1;jettySize=auto;html=1;entryX=-0.01;entryY=0.129;entryDx=0;entryDy=0;entryPerimeter=0;verticalAlign=top;align=left;labelPosition=right;verticalLabelPosition=bottom;" edge="1" parent="1" source="bKzkpVximSu1KDsUYIer-1" target="bKzkpVximSu1KDsUYIer-7">
          <mxGeometry relative="1" as="geometry" />
        </mxCell>
        <mxCell id="bKzkpVximSu1KDsUYIer-9" style="edgeStyle=orthogonalEdgeStyle;rounded=0;orthogonalLoop=1;jettySize=auto;html=1;entryX=0.005;entryY=0.292;entryDx=0;entryDy=0;entryPerimeter=0;" edge="1" parent="1" source="bKzkpVximSu1KDsUYIer-1" target="bKzkpVximSu1KDsUYIer-7">
          <mxGeometry relative="1" as="geometry" />
        </mxCell>
        <mxCell id="bKzkpVximSu1KDsUYIer-10" style="edgeStyle=orthogonalEdgeStyle;rounded=0;orthogonalLoop=1;jettySize=auto;html=1;" edge="1" parent="1" source="bKzkpVximSu1KDsUYIer-1">
          <mxGeometry relative="1" as="geometry">
            <mxPoint x="240" y="200" as="targetPoint" />
          </mxGeometry>
        </mxCell>
        <mxCell id="bKzkpVximSu1KDsUYIer-11" style="edgeStyle=orthogonalEdgeStyle;rounded=0;orthogonalLoop=1;jettySize=auto;html=1;" edge="1" parent="1" source="bKzkpVximSu1KDsUYIer-1">
          <mxGeometry relative="1" as="geometry">
            <mxPoint x="240" y="240" as="targetPoint" />
          </mxGeometry>
        </mxCell>
        <mxCell id="bKzkpVximSu1KDsUYIer-12" style="edgeStyle=orthogonalEdgeStyle;rounded=0;orthogonalLoop=1;jettySize=auto;html=1;entryX=-0.014;entryY=0.828;entryDx=0;entryDy=0;entryPerimeter=0;" edge="1" parent="1" source="bKzkpVximSu1KDsUYIer-1" target="bKzkpVximSu1KDsUYIer-7">
          <mxGeometry relative="1" as="geometry" />
        </mxCell>
        <mxCell id="bKzkpVximSu1KDsUYIer-14" value="Deposit" style="text;html=1;align=center;verticalAlign=middle;resizable=0;points=[];autosize=1;strokeColor=none;fillColor=none;" vertex="1" parent="1">
          <mxGeometry x="115" y="90" width="60" height="30" as="geometry" />
        </mxCell>
        <mxCell id="bKzkpVximSu1KDsUYIer-15" value="Withdraw" style="text;html=1;align=center;verticalAlign=middle;resizable=0;points=[];autosize=1;strokeColor=none;fillColor=none;" vertex="1" parent="1">
          <mxGeometry x="110" y="128" width="70" height="30" as="geometry" />
        </mxCell>
        <mxCell id="bKzkpVximSu1KDsUYIer-17" value="Borrow" style="text;html=1;align=center;verticalAlign=middle;resizable=0;points=[];autosize=1;strokeColor=none;fillColor=none;" vertex="1" parent="1">
          <mxGeometry x="115" y="170" width="60" height="30" as="geometry" />
        </mxCell>
        <mxCell id="bKzkpVximSu1KDsUYIer-18" value="Repay" style="text;html=1;align=center;verticalAlign=middle;resizable=0;points=[];autosize=1;strokeColor=none;fillColor=none;" vertex="1" parent="1">
          <mxGeometry x="115" y="210" width="60" height="30" as="geometry" />
        </mxCell>
        <mxCell id="bKzkpVximSu1KDsUYIer-19" value="Liquidate" style="text;html=1;align=center;verticalAlign=middle;resizable=0;points=[];autosize=1;strokeColor=none;fillColor=none;" vertex="1" parent="1">
          <mxGeometry x="105" y="250" width="70" height="30" as="geometry" />
        </mxCell>
        <mxCell id="bKzkpVximSu1KDsUYIer-21" style="edgeStyle=orthogonalEdgeStyle;rounded=0;orthogonalLoop=1;jettySize=auto;html=1;entryX=0.5;entryY=1;entryDx=0;entryDy=0;horizontal=0;startArrow=block;startFill=0;endArrow=none;endFill=0;endSize=12;startSize=12;" edge="1" parent="1" source="bKzkpVximSu1KDsUYIer-20" target="bKzkpVximSu1KDsUYIer-7">
          <mxGeometry relative="1" as="geometry" />
        </mxCell>
        <mxCell id="bKzkpVximSu1KDsUYIer-57" style="edgeStyle=orthogonalEdgeStyle;shape=connector;rounded=0;orthogonalLoop=1;jettySize=auto;html=1;entryX=0;entryY=0.5;entryDx=0;entryDy=0;labelBackgroundColor=default;strokeColor=default;align=center;verticalAlign=middle;fontFamily=Helvetica;fontSize=11;fontColor=default;startArrow=block;startFill=0;endArrow=block;endFill=0;" edge="1" parent="1" source="bKzkpVximSu1KDsUYIer-20" target="bKzkpVximSu1KDsUYIer-49">
          <mxGeometry relative="1" as="geometry">
            <Array as="points">
              <mxPoint x="520" y="560" />
              <mxPoint x="520" y="420" />
            </Array>
          </mxGeometry>
        </mxCell>
        <mxCell id="bKzkpVximSu1KDsUYIer-20" value="&lt;font style=&quot;font-size: 20px;&quot;&gt;Collateral Manager&lt;/font&gt;" style="rounded=1;whiteSpace=wrap;html=1;" vertex="1" parent="1">
          <mxGeometry x="270" y="515" width="160" height="90" as="geometry" />
        </mxCell>
        <mxCell id="bKzkpVximSu1KDsUYIer-28" style="edgeStyle=orthogonalEdgeStyle;rounded=0;orthogonalLoop=1;jettySize=auto;html=1;entryX=0;entryY=0.5;entryDx=0;entryDy=0;endArrow=block;startArrow=block;startFill=0;endFill=0;" edge="1" parent="1" source="bKzkpVximSu1KDsUYIer-22" target="bKzkpVximSu1KDsUYIer-20">
          <mxGeometry relative="1" as="geometry">
            <Array as="points">
              <mxPoint x="170" y="420" />
              <mxPoint x="170" y="560" />
            </Array>
          </mxGeometry>
        </mxCell>
        <mxCell id="bKzkpVximSu1KDsUYIer-22" value="USDC Debt Token" style="rounded=1;whiteSpace=wrap;html=1;" vertex="1" parent="1">
          <mxGeometry x="10" y="390" width="120" height="60" as="geometry" />
        </mxCell>
        <mxCell id="bKzkpVximSu1KDsUYIer-32" style="edgeStyle=orthogonalEdgeStyle;rounded=0;orthogonalLoop=1;jettySize=auto;html=1;entryX=0;entryY=0.5;entryDx=0;entryDy=0;endArrow=block;startArrow=block;startFill=0;endFill=0;" edge="1" parent="1" source="bKzkpVximSu1KDsUYIer-24" target="bKzkpVximSu1KDsUYIer-20">
          <mxGeometry relative="1" as="geometry">
            <Array as="points">
              <mxPoint x="170" y="700" />
              <mxPoint x="170" y="560" />
            </Array>
          </mxGeometry>
        </mxCell>
        <mxCell id="bKzkpVximSu1KDsUYIer-24" value="WETH Debt Token" style="rounded=1;whiteSpace=wrap;html=1;" vertex="1" parent="1">
          <mxGeometry x="10" y="670" width="120" height="60" as="geometry" />
        </mxCell>
        <mxCell id="bKzkpVximSu1KDsUYIer-25" value="..." style="text;html=1;align=center;verticalAlign=top;resizable=0;points=[];autosize=1;strokeColor=none;fillColor=none;horizontal=0;fontSize=30;" vertex="1" parent="1">
          <mxGeometry x="40" y="535" width="60" height="40" as="geometry" />
        </mxCell>
        <mxCell id="bKzkpVximSu1KDsUYIer-31" style="edgeStyle=orthogonalEdgeStyle;rounded=0;orthogonalLoop=1;jettySize=auto;html=1;entryX=0;entryY=0.5;entryDx=0;entryDy=0;endArrow=block;startArrow=block;startFill=0;endFill=0;" edge="1" parent="1" source="bKzkpVximSu1KDsUYIer-26" target="bKzkpVximSu1KDsUYIer-20">
          <mxGeometry relative="1" as="geometry">
            <Array as="points">
              <mxPoint x="170" y="620" />
              <mxPoint x="170" y="560" />
            </Array>
          </mxGeometry>
        </mxCell>
        <mxCell id="bKzkpVximSu1KDsUYIer-26" value="DAI Debt Token" style="rounded=1;whiteSpace=wrap;html=1;" vertex="1" parent="1">
          <mxGeometry x="10" y="590" width="120" height="60" as="geometry" />
        </mxCell>
        <mxCell id="bKzkpVximSu1KDsUYIer-30" style="edgeStyle=orthogonalEdgeStyle;rounded=0;orthogonalLoop=1;jettySize=auto;html=1;entryX=0;entryY=0.5;entryDx=0;entryDy=0;endArrow=block;startArrow=block;startFill=0;endFill=0;" edge="1" parent="1" source="bKzkpVximSu1KDsUYIer-27" target="bKzkpVximSu1KDsUYIer-20">
          <mxGeometry relative="1" as="geometry">
            <Array as="points">
              <mxPoint x="170" y="500" />
              <mxPoint x="170" y="560" />
            </Array>
          </mxGeometry>
        </mxCell>
        <mxCell id="bKzkpVximSu1KDsUYIer-27" value="USDT Debt Token" style="rounded=1;whiteSpace=wrap;html=1;" vertex="1" parent="1">
          <mxGeometry x="10" y="470" width="120" height="60" as="geometry" />
        </mxCell>
        <mxCell id="bKzkpVximSu1KDsUYIer-33" value="&lt;div align=&quot;left&quot; style=&quot;font-size: 20px;&quot;&gt;ERC20 &lt;br&gt;&lt;/div&gt;" style="shape=curlyBracket;whiteSpace=wrap;html=1;rounded=1;labelPosition=left;verticalLabelPosition=middle;align=right;verticalAlign=middle;fontSize=20;" vertex="1" parent="1">
          <mxGeometry x="-30" y="390" width="20" height="340" as="geometry" />
        </mxCell>
        <mxCell id="bKzkpVximSu1KDsUYIer-73" style="edgeStyle=orthogonalEdgeStyle;shape=connector;rounded=0;orthogonalLoop=1;jettySize=auto;html=1;labelBackgroundColor=default;strokeColor=default;align=center;verticalAlign=middle;fontFamily=Helvetica;fontSize=11;fontColor=default;startArrow=block;startFill=0;endArrow=block;endFill=0;" edge="1" parent="1" source="bKzkpVximSu1KDsUYIer-49" target="bKzkpVximSu1KDsUYIer-72">
          <mxGeometry relative="1" as="geometry" />
        </mxCell>
        <mxCell id="bKzkpVximSu1KDsUYIer-49" value="mUSDC Token" style="rounded=1;whiteSpace=wrap;html=1;" vertex="1" parent="1">
          <mxGeometry x="560" y="390" width="120" height="60" as="geometry" />
        </mxCell>
        <mxCell id="bKzkpVximSu1KDsUYIer-61" style="edgeStyle=orthogonalEdgeStyle;shape=connector;rounded=0;orthogonalLoop=1;jettySize=auto;html=1;entryX=1;entryY=0.5;entryDx=0;entryDy=0;labelBackgroundColor=default;strokeColor=default;align=right;verticalAlign=bottom;fontFamily=Helvetica;fontSize=11;fontColor=default;startArrow=block;startFill=0;endArrow=block;endFill=0;labelPosition=left;verticalLabelPosition=top;" edge="1" parent="1" source="bKzkpVximSu1KDsUYIer-50" target="bKzkpVximSu1KDsUYIer-20">
          <mxGeometry relative="1" as="geometry">
            <Array as="points">
              <mxPoint x="520" y="700" />
              <mxPoint x="520" y="560" />
            </Array>
          </mxGeometry>
        </mxCell>
        <mxCell id="bKzkpVximSu1KDsUYIer-68" style="edgeStyle=orthogonalEdgeStyle;shape=connector;rounded=0;orthogonalLoop=1;jettySize=auto;html=1;labelBackgroundColor=default;strokeColor=default;align=center;verticalAlign=middle;fontFamily=Helvetica;fontSize=11;fontColor=default;startArrow=block;startFill=0;endArrow=block;endFill=0;" edge="1" parent="1" source="bKzkpVximSu1KDsUYIer-50" target="bKzkpVximSu1KDsUYIer-67">
          <mxGeometry relative="1" as="geometry" />
        </mxCell>
        <mxCell id="bKzkpVximSu1KDsUYIer-50" value="mWETH Token" style="rounded=1;whiteSpace=wrap;html=1;" vertex="1" parent="1">
          <mxGeometry x="560" y="670" width="120" height="60" as="geometry" />
        </mxCell>
        <mxCell id="bKzkpVximSu1KDsUYIer-51" value="..." style="text;html=1;align=center;verticalAlign=top;resizable=0;points=[];autosize=1;strokeColor=none;fillColor=none;horizontal=0;fontSize=30;" vertex="1" parent="1">
          <mxGeometry x="590" y="535" width="60" height="40" as="geometry" />
        </mxCell>
        <mxCell id="bKzkpVximSu1KDsUYIer-59" style="edgeStyle=orthogonalEdgeStyle;shape=connector;rounded=0;orthogonalLoop=1;jettySize=auto;html=1;entryX=1;entryY=0.5;entryDx=0;entryDy=0;labelBackgroundColor=default;strokeColor=default;align=center;verticalAlign=middle;fontFamily=Helvetica;fontSize=11;fontColor=default;startArrow=block;startFill=0;endArrow=block;endFill=0;" edge="1" parent="1" source="bKzkpVximSu1KDsUYIer-52" target="bKzkpVximSu1KDsUYIer-20">
          <mxGeometry relative="1" as="geometry">
            <Array as="points">
              <mxPoint x="520" y="620" />
              <mxPoint x="520" y="560" />
            </Array>
          </mxGeometry>
        </mxCell>
        <mxCell id="bKzkpVximSu1KDsUYIer-52" value="mDAI Token" style="rounded=1;whiteSpace=wrap;html=1;" vertex="1" parent="1">
          <mxGeometry x="560" y="590" width="120" height="60" as="geometry" />
        </mxCell>
        <mxCell id="bKzkpVximSu1KDsUYIer-58" style="edgeStyle=orthogonalEdgeStyle;shape=connector;rounded=0;orthogonalLoop=1;jettySize=auto;html=1;entryX=1;entryY=0.5;entryDx=0;entryDy=0;labelBackgroundColor=default;strokeColor=default;align=center;verticalAlign=middle;fontFamily=Helvetica;fontSize=11;fontColor=default;startArrow=block;startFill=0;endArrow=block;endFill=0;" edge="1" parent="1" source="bKzkpVximSu1KDsUYIer-53" target="bKzkpVximSu1KDsUYIer-20">
          <mxGeometry relative="1" as="geometry">
            <Array as="points">
              <mxPoint x="520" y="500" />
              <mxPoint x="520" y="560" />
            </Array>
          </mxGeometry>
        </mxCell>
        <mxCell id="bKzkpVximSu1KDsUYIer-53" value="mUSDT Token" style="rounded=1;whiteSpace=wrap;html=1;" vertex="1" parent="1">
          <mxGeometry x="560" y="470" width="120" height="60" as="geometry" />
        </mxCell>
        <mxCell id="bKzkpVximSu1KDsUYIer-62" value="Burn/Mint" style="text;html=1;align=center;verticalAlign=middle;resizable=0;points=[];autosize=1;strokeColor=none;fillColor=none;fontSize=11;fontFamily=Helvetica;fontColor=default;" vertex="1" parent="1">
          <mxGeometry x="440" y="530" width="70" height="30" as="geometry" />
        </mxCell>
        <mxCell id="bKzkpVximSu1KDsUYIer-63" value="Burn/Mint" style="text;html=1;align=center;verticalAlign=middle;resizable=0;points=[];autosize=1;strokeColor=none;fillColor=none;fontSize=11;fontFamily=Helvetica;fontColor=default;" vertex="1" parent="1">
          <mxGeometry x="180" y="530" width="70" height="30" as="geometry" />
        </mxCell>
        <mxCell id="bKzkpVximSu1KDsUYIer-65" value="USDT" style="shape=cylinder3;whiteSpace=wrap;html=1;boundedLbl=1;backgroundOutline=1;size=15;fontFamily=Helvetica;fontSize=11;fontColor=default;" vertex="1" parent="1">
          <mxGeometry x="905" y="470" width="60" height="60" as="geometry" />
        </mxCell>
        <mxCell id="bKzkpVximSu1KDsUYIer-66" value="DAI" style="shape=cylinder3;whiteSpace=wrap;html=1;boundedLbl=1;backgroundOutline=1;size=15;fontFamily=Helvetica;fontSize=11;fontColor=default;" vertex="1" parent="1">
          <mxGeometry x="905" y="590" width="60" height="60" as="geometry" />
        </mxCell>
        <mxCell id="bKzkpVximSu1KDsUYIer-67" value="WETH" style="shape=cylinder3;whiteSpace=wrap;html=1;boundedLbl=1;backgroundOutline=1;size=15;fontFamily=Helvetica;fontSize=11;fontColor=default;" vertex="1" parent="1">
          <mxGeometry x="905" y="670" width="60" height="60" as="geometry" />
        </mxCell>
        <mxCell id="bKzkpVximSu1KDsUYIer-69" style="edgeStyle=orthogonalEdgeStyle;shape=connector;rounded=0;orthogonalLoop=1;jettySize=auto;html=1;entryX=0;entryY=0.5;entryDx=0;entryDy=0;entryPerimeter=0;labelBackgroundColor=default;strokeColor=default;align=center;verticalAlign=middle;fontFamily=Helvetica;fontSize=11;fontColor=default;startArrow=block;startFill=0;endArrow=block;endFill=0;" edge="1" parent="1" source="bKzkpVximSu1KDsUYIer-52" target="bKzkpVximSu1KDsUYIer-66">
          <mxGeometry relative="1" as="geometry" />
        </mxCell>
        <mxCell id="bKzkpVximSu1KDsUYIer-70" style="edgeStyle=orthogonalEdgeStyle;shape=connector;rounded=0;orthogonalLoop=1;jettySize=auto;html=1;entryX=0;entryY=0.5;entryDx=0;entryDy=0;entryPerimeter=0;labelBackgroundColor=default;strokeColor=default;align=center;verticalAlign=middle;fontFamily=Helvetica;fontSize=11;fontColor=default;startArrow=block;startFill=0;endArrow=block;endFill=0;" edge="1" parent="1" source="bKzkpVximSu1KDsUYIer-53" target="bKzkpVximSu1KDsUYIer-65">
          <mxGeometry relative="1" as="geometry" />
        </mxCell>
        <mxCell id="bKzkpVximSu1KDsUYIer-72" value="USDC" style="shape=cylinder3;whiteSpace=wrap;html=1;boundedLbl=1;backgroundOutline=1;size=15;fontFamily=Helvetica;fontSize=11;fontColor=default;" vertex="1" parent="1">
          <mxGeometry x="905" y="390" width="60" height="60" as="geometry" />
        </mxCell>
        <mxCell id="bKzkpVximSu1KDsUYIer-75" value="&lt;div&gt;ERC20&lt;/div&gt;" style="shape=curlyBracket;whiteSpace=wrap;html=1;rounded=1;flipH=1;labelPosition=right;verticalLabelPosition=middle;align=center;verticalAlign=middle;fontFamily=Helvetica;fontSize=20;fontColor=default;rotation=90;horizontal=0;" vertex="1" parent="1">
          <mxGeometry x="717.5" y="527.5" width="30" height="495" as="geometry" />
        </mxCell>
        <mxCell id="bKzkpVximSu1KDsUYIer-87" value="Reserves" style="shape=curlyBracket;whiteSpace=wrap;html=1;rounded=1;flipH=1;labelPosition=right;verticalLabelPosition=middle;align=left;verticalAlign=middle;fontFamily=Helvetica;fontSize=20;fontColor=default;rotation=0;horizontal=1;" vertex="1" parent="1">
          <mxGeometry x="990" y="385" width="30" height="350" as="geometry" />
        </mxCell>
        <mxCell id="bKzkpVximSu1KDsUYIer-91" value="&lt;div style=&quot;font-size: 15px;&quot;&gt;Fetch Information&lt;br style=&quot;font-size: 15px;&quot;&gt;&lt;/div&gt;" style="edgeStyle=orthogonalEdgeStyle;shape=connector;rounded=0;orthogonalLoop=1;jettySize=auto;html=1;entryX=1;entryY=0.25;entryDx=0;entryDy=0;labelBackgroundColor=default;strokeColor=default;align=right;verticalAlign=top;fontFamily=Helvetica;fontSize=15;fontColor=default;startArrow=none;startFill=0;endArrow=block;endFill=0;endSize=12;" edge="1" parent="1" source="bKzkpVximSu1KDsUYIer-88" target="bKzkpVximSu1KDsUYIer-7">
          <mxGeometry x="0.0001" relative="1" as="geometry">
            <Array as="points">
              <mxPoint x="590" y="148" />
            </Array>
            <mxPoint as="offset" />
          </mxGeometry>
        </mxCell>
        <mxCell id="bKzkpVximSu1KDsUYIer-88" value="Oracle" style="shape=mxgraph.signs.healthcare.eye;html=1;pointerEvents=1;fillColor=#000000;strokeColor=none;verticalLabelPosition=top;verticalAlign=bottom;align=center;fontFamily=Helvetica;fontSize=20;fontColor=default;labelPosition=center;" vertex="1" parent="1">
          <mxGeometry x="540" y="-140" width="99" height="55" as="geometry" />
        </mxCell>
        <mxCell id="bKzkpVximSu1KDsUYIer-99" style="edgeStyle=orthogonalEdgeStyle;shape=connector;rounded=0;orthogonalLoop=1;jettySize=auto;html=1;entryX=1;entryY=0.5;entryDx=0;entryDy=0;labelBackgroundColor=default;strokeColor=default;align=center;verticalAlign=middle;fontFamily=Helvetica;fontSize=11;fontColor=default;startArrow=none;startFill=0;endArrow=block;endFill=0;endSize=12;" edge="1" parent="1" source="bKzkpVximSu1KDsUYIer-92" target="bKzkpVximSu1KDsUYIer-98">
          <mxGeometry relative="1" as="geometry" />
        </mxCell>
        <mxCell id="bKzkpVximSu1KDsUYIer-92" value="AlterLand Governance" style="rounded=1;whiteSpace=wrap;html=1;fontFamily=Helvetica;fontSize=30;fontColor=default;" vertex="1" parent="1">
          <mxGeometry x="1130" y="-140" width="220" height="140" as="geometry" />
        </mxCell>
        <mxCell id="bKzkpVximSu1KDsUYIer-96" style="edgeStyle=orthogonalEdgeStyle;shape=connector;rounded=0;orthogonalLoop=1;jettySize=auto;html=1;entryX=0.75;entryY=0;entryDx=0;entryDy=0;labelBackgroundColor=default;strokeColor=default;align=center;verticalAlign=middle;fontFamily=Helvetica;fontSize=11;fontColor=default;startArrow=none;startFill=0;endArrow=block;endFill=0;endSize=12;" edge="1" parent="1" source="bKzkpVximSu1KDsUYIer-94" target="bKzkpVximSu1KDsUYIer-20">
          <mxGeometry relative="1" as="geometry">
            <Array as="points">
              <mxPoint x="540" y="370" />
              <mxPoint x="390" y="370" />
            </Array>
          </mxGeometry>
        </mxCell>
        <mxCell id="bKzkpVximSu1KDsUYIer-94" value="&lt;font style=&quot;font-size: 20px;&quot;&gt;Lendint Rate&lt;br&gt;Calculatator&lt;/font&gt;" style="rounded=1;whiteSpace=wrap;html=1;fontFamily=Helvetica;fontSize=11;fontColor=default;" vertex="1" parent="1">
          <mxGeometry x="510" y="240" width="170" height="95" as="geometry" />
        </mxCell>
        <mxCell id="bKzkpVximSu1KDsUYIer-97" style="edgeStyle=orthogonalEdgeStyle;shape=connector;rounded=0;orthogonalLoop=1;jettySize=auto;html=1;entryX=1.005;entryY=0.862;entryDx=0;entryDy=0;entryPerimeter=0;labelBackgroundColor=default;strokeColor=default;align=center;verticalAlign=middle;fontFamily=Helvetica;fontSize=11;fontColor=default;startArrow=none;startFill=0;endArrow=block;endFill=0;endSize=12;" edge="1" parent="1" source="bKzkpVximSu1KDsUYIer-94" target="bKzkpVximSu1KDsUYIer-7">
          <mxGeometry relative="1" as="geometry" />
        </mxCell>
        <mxCell id="bKzkpVximSu1KDsUYIer-100" value="Configure" style="edgeStyle=orthogonalEdgeStyle;shape=connector;rounded=0;orthogonalLoop=1;jettySize=auto;html=1;entryX=1;entryY=0.5;entryDx=0;entryDy=0;labelBackgroundColor=default;strokeColor=default;align=center;verticalAlign=top;fontFamily=Helvetica;fontSize=15;fontColor=default;startArrow=none;startFill=0;endArrow=block;endFill=0;endSize=12;labelPosition=center;verticalLabelPosition=bottom;" edge="1" parent="1" source="bKzkpVximSu1KDsUYIer-98" target="bKzkpVximSu1KDsUYIer-94">
          <mxGeometry x="0.0048" relative="1" as="geometry">
            <mxPoint as="offset" />
          </mxGeometry>
        </mxCell>
        <mxCell id="bKzkpVximSu1KDsUYIer-101" value="&lt;div style=&quot;font-size: 15px;&quot; align=&quot;left&quot;&gt;Configure&lt;/div&gt;" style="edgeStyle=orthogonalEdgeStyle;shape=connector;rounded=0;orthogonalLoop=1;jettySize=auto;html=1;entryX=1;entryY=0.5;entryDx=0;entryDy=0;labelBackgroundColor=default;strokeColor=default;align=left;verticalAlign=middle;fontFamily=Helvetica;fontSize=11;fontColor=default;startArrow=none;startFill=0;endArrow=block;endFill=0;endSize=12;" edge="1" parent="1" source="bKzkpVximSu1KDsUYIer-98" target="bKzkpVximSu1KDsUYIer-7">
          <mxGeometry relative="1" as="geometry" />
        </mxCell>
        <mxCell id="bKzkpVximSu1KDsUYIer-98" value="AlterLand&lt;br style=&quot;font-size: 20px;&quot;&gt;Configurator" style="rounded=1;whiteSpace=wrap;html=1;fontFamily=Helvetica;fontSize=20;fontColor=default;" vertex="1" parent="1">
          <mxGeometry x="670" y="120" width="180" height="105" as="geometry" />
        </mxCell>
      </root>
    </mxGraphModel>
  </diagram>
</mxfile>
